<svg xmlns="http://www.w3.org/2000/svg" viewBox="0 0 560 320" role="img" aria-labelledby="t d">
  <title id="t">Scoring and analysis</title><desc id="d">A block-pair energy heatmap next to a molecular contact.</desc>
  <rect width="560" height="320" rx="24" fill="#192235"/>
  <g transform="translate(48 52)">
    <rect width="216" height="216" rx="12" fill="#26334b"/>
    <g stroke="#192235" stroke-width="3">
      <path d="M0 54h216M0 108h216M0 162h216M54 0v216M108 0v216M162 0v216"/>
    </g>
    <g fill="#56b4e9"><rect x="4" y="4" width="46" height="46"/><rect x="58" y="112" width="46" height="46"/><rect x="166" y="58" width="46" height="46"/></g>
    <g fill="#e76f51"><rect x="58" y="4" width="46" height="46"/><rect x="112" y="58" width="46" height="46"/><rect x="4" y="166" width="46" height="46"/></g>
    <g fill="#f6c85f"><rect x="112" y="112" width="46" height="46"/><rect x="166" y="166" width="46" height="46"/></g>
  </g>
  <g stroke="#7de2a8" stroke-width="8"><path d="m330 90 62 50 72-20M392 140l-46 77M392 140l61 75"/></g>
  <g fill="#f4f1e8" stroke="#192235" stroke-width="5"><circle cx="330" cy="90" r="20"/><circle cx="392" cy="140" r="24"/><circle cx="464" cy="120" r="18"/><circle cx="346" cy="217" r="21"/><circle cx="453" cy="215" r="22"/></g>
  <path d="M365 194q28-25 58 1" fill="none" stroke="#ff7f7f" stroke-width="7" stroke-dasharray="8 8"/>
  <text x="320" y="282" font-family="sans-serif" font-size="18" fill="#dce6f7">terms · gradients · contacts</text>
</svg>
