<?xml version="1.0" standalone="no"?>
<!DOCTYPE svg PUBLIC "-//W3C//DTD SVG 1.1//EN" "http://www.w3.org/Graphics/SVG/1.1/DTD/svg11.dtd">

<svg width="440.0" height="244.0" viewBox="0 0 440.0 244.0" version="1.1" xmlns="http://www.w3.org/2000/svg" xmlns:xlink="http://www.w3.org/1999/xlink">
<!-- automatically generated by aafigure --><line x1="10.0" y1="10.0" x2="136.0" y2="10.0" stroke="#000000" stroke-width="2.0" />
<line x1="290.0" y1="10.0" x2="430.0" y2="10.0" stroke="#000000" stroke-width="2.0" />
<line x1="10.0" y1="10.0" x2="10.0" y2="66.0" stroke="#000000" stroke-width="2.0" />
<line x1="136.0" y1="10.0" x2="136.0" y2="38.0" stroke="#000000" stroke-width="2.0" />
<g>
    <circle cx="290.0" cy="38.0" r="3.5" stroke="#000000" stroke-width="2.0" fill="#000000" />    <line x1="290.0" y1="10.0" x2="290.0" y2="38.0" stroke="#000000" stroke-width="2.0" />
</g>
<line x1="430.0" y1="10.0" x2="430.0" y2="66.0" stroke="#000000" stroke-width="2.0" />
<g>
    <circle cx="290.0" cy="38.0" r="3.5" stroke="#000000" stroke-width="2.0" fill="#000000" />    <line x1="136.0" y1="38.0" x2="290.0" y2="38.0" stroke="#000000" stroke-width="2.0" />
</g>
<line x1="136.0" y1="38.0" x2="136.0" y2="66.0" stroke="#000000" stroke-width="2.0" />
<g>
    <circle cx="290.0" cy="38.0" r="3.5" stroke="#000000" stroke-width="2.0" fill="#000000" />    <line x1="290.0" y1="38.0" x2="290.0" y2="66.0" stroke="#000000" stroke-width="2.0" />
</g>
<line x1="10.0" y1="66.0" x2="52.0" y2="66.0" stroke="#000000" stroke-width="2.0" />
<line x1="52.0" y1="66.0" x2="136.0" y2="66.0" stroke="#000000" stroke-width="2.0" />
<line x1="290.0" y1="66.0" x2="332.0" y2="66.0" stroke="#000000" stroke-width="2.0" />
<line x1="332.0" y1="66.0" x2="402.0" y2="66.0" stroke="#000000" stroke-width="2.0" />
<line x1="402.0" y1="66.0" x2="430.0" y2="66.0" stroke="#000000" stroke-width="2.0" />
<line x1="52.0" y1="66.0" x2="52.0" y2="206.0" stroke="#000000" stroke-width="2.0" />
<g>
    <line x1="332.0" y1="101.0" x2="328.5" y2="90.5" stroke="#000000" stroke-width="2.0" />
    <line x1="332.0" y1="101.0" x2="335.5" y2="90.5" stroke="#000000" stroke-width="2.0" />
    <line x1="332.0" y1="66.0" x2="332.0" y2="101.0" stroke="#000000" stroke-width="2.0" />
</g>
<line x1="402.0" y1="66.0" x2="402.0" y2="206.0" stroke="#000000" stroke-width="2.0" />
<line x1="80.0" y1="94.0" x2="325.0" y2="94.0" stroke="#000000" stroke-width="2.0" />
<line x1="339.0" y1="94.0" x2="360.0" y2="94.0" stroke="#000000" stroke-width="2.0" />
<line x1="80.0" y1="94.0" x2="80.0" y2="150.0" stroke="#000000" stroke-width="2.0" />
<line x1="360.0" y1="94.0" x2="360.0" y2="150.0" stroke="#000000" stroke-width="2.0" />
<line x1="80.0" y1="150.0" x2="220.0" y2="150.0" stroke="#000000" stroke-width="2.0" />
<line x1="220.0" y1="150.0" x2="360.0" y2="150.0" stroke="#000000" stroke-width="2.0" />
<g>
    <line x1="220.0" y1="185.0" x2="216.5" y2="174.5" stroke="#000000" stroke-width="2.0" />
    <line x1="220.0" y1="185.0" x2="223.5" y2="174.5" stroke="#000000" stroke-width="2.0" />
    <line x1="220.0" y1="150.0" x2="220.0" y2="185.0" stroke="#000000" stroke-width="2.0" />
</g>
<line x1="80.0" y1="178.0" x2="213.0" y2="178.0" stroke="#000000" stroke-width="2.0" />
<line x1="227.0" y1="178.0" x2="360.0" y2="178.0" stroke="#000000" stroke-width="2.0" />
<line x1="80.0" y1="178.0" x2="80.0" y2="199.0" stroke="#000000" stroke-width="2.0" />
<line x1="360.0" y1="178.0" x2="360.0" y2="199.0" stroke="#000000" stroke-width="2.0" />
<g>
    <line x1="87.0" y1="206.0" x2="76.5" y2="209.5" stroke="#000000" stroke-width="2.0" />
    <line x1="87.0" y1="206.0" x2="76.5" y2="202.5" stroke="#000000" stroke-width="2.0" />
    <line x1="52.0" y1="206.0" x2="87.0" y2="206.0" stroke="#000000" stroke-width="2.0" />
</g>
<g>
    <line x1="353.0" y1="206.0" x2="363.5" y2="202.5" stroke="#000000" stroke-width="2.0" />
    <line x1="353.0" y1="206.0" x2="363.5" y2="209.5" stroke="#000000" stroke-width="2.0" />
    <line x1="353.0" y1="206.0" x2="402.0" y2="206.0" stroke="#000000" stroke-width="2.0" />
</g>
<line x1="80.0" y1="213.0" x2="80.0" y2="234.0" stroke="#000000" stroke-width="2.0" />
<line x1="360.0" y1="213.0" x2="360.0" y2="234.0" stroke="#000000" stroke-width="2.0" />
<line x1="80.0" y1="234.0" x2="360.0" y2="234.0" stroke="#000000" stroke-width="2.0" />
<text x="31.0" y="42.9" font-family="monospace" font-size="14.0" fill="#000000" >
  system
</text>
<text x="311.0" y="42.9" font-family="monospace" font-size="14.0" fill="#000000" >
  scoring
</text>
<text x="101.0" y="126.89999999999999" font-family="monospace" font-size="14.0" fill="#000000" >
  database.scoring
</text>
<text x="101.0" y="210.9" font-family="monospace" font-size="14.0" fill="#000000" >
  database.chemical
</text>
</svg>
