<?xml version="1.0" standalone="no"?>
<!DOCTYPE svg PUBLIC "-//W3C//DTD SVG 1.1//EN" "http://www.w3.org/Graphics/SVG/1.1/DTD/svg11.dtd">

<svg width="454.0" height="384.0" viewBox="0 0 454.0 384.0" version="1.1" xmlns="http://www.w3.org/2000/svg" xmlns:xlink="http://www.w3.org/1999/xlink">
<!-- automatically generated by aafigure --><text x="45.0" y="56.9" font-family="monospace" font-size="14.0" fill="#000000" >
  intra_score_type: type
</text>
<text x="45.0" y="70.89999999999999" font-family="monospace" font-size="14.0" fill="#000000" >
  inter_score_type: type
</text>
<text x="283.0" y="126.89999999999999" font-family="monospace" font-size="14.0" fill="#000000" >
  References
</text>
<text x="3.0" y="154.9" font-family="monospace" font-size="14.0" fill="#000000" >
  Defines and constructs
</text>
<text x="129.0" y="224.9" font-family="monospace" font-size="14.0" fill="#000000" >
  target:        
</text>
<text x="129.0" y="322.90000000000003" font-family="monospace" font-size="14.0" fill="#000000" >
  target_i:      
</text>
<text x="129.0" y="350.90000000000003" font-family="monospace" font-size="14.0" fill="#000000" >
  target_j:      
</text>
<line x1="10.0" y1="10.0" x2="402.0" y2="10.0" stroke="#000000" stroke-width="2.0" />
<line x1="10.0" y1="10.0" x2="10.0" y2="94.0" stroke="#000000" stroke-width="2.0" />
<line x1="402.0" y1="10.0" x2="402.0" y2="31.0" stroke="#000000" stroke-width="2.0" />
<g>
    <line x1="395.0" y1="38.0" x2="405.5" y2="34.5" stroke="#000000" stroke-width="2.0" />
    <line x1="395.0" y1="38.0" x2="405.5" y2="41.5" stroke="#000000" stroke-width="2.0" />
    <line x1="395.0" y1="38.0" x2="430.0" y2="38.0" stroke="#000000" stroke-width="2.0" />
</g>
<line x1="402.0" y1="45.0" x2="402.0" y2="94.0" stroke="#000000" stroke-width="2.0" />
<line x1="430.0" y1="38.0" x2="430.0" y2="115.0" stroke="#000000" stroke-width="2.0" />
<line x1="10.0" y1="94.0" x2="66.0" y2="94.0" stroke="#000000" stroke-width="2.0" />
<line x1="66.0" y1="94.0" x2="402.0" y2="94.0" stroke="#000000" stroke-width="2.0" />
<line x1="66.0" y1="94.0" x2="66.0" y2="143.0" stroke="#000000" stroke-width="2.0" />
<line x1="430.0" y1="129.0" x2="430.0" y2="220.0" stroke="#000000" stroke-width="2.0" />
<line x1="66.0" y1="157.0" x2="66.0" y2="220.0" stroke="#000000" stroke-width="2.0" />
<line x1="94.0" y1="178.0" x2="402.0" y2="178.0" stroke="#000000" stroke-width="2.0" />
<line x1="94.0" y1="178.0" x2="94.0" y2="213.0" stroke="#000000" stroke-width="2.0" />
<line x1="402.0" y1="178.0" x2="402.0" y2="220.0" stroke="#000000" stroke-width="2.0" />
<g>
    <line x1="101.0" y1="220.0" x2="90.5" y2="223.5" stroke="#000000" stroke-width="2.0" />
    <line x1="101.0" y1="220.0" x2="90.5" y2="216.5" stroke="#000000" stroke-width="2.0" />
    <line x1="66.0" y1="220.0" x2="101.0" y2="220.0" stroke="#000000" stroke-width="2.0" />
</g>
<line x1="402.0" y1="220.0" x2="430.0" y2="220.0" stroke="#000000" stroke-width="2.0" />
<line x1="66.0" y1="220.0" x2="66.0" y2="318.0" stroke="#000000" stroke-width="2.0" />
<line x1="94.0" y1="227.0" x2="94.0" y2="248.0" stroke="#000000" stroke-width="2.0" />
<line x1="402.0" y1="220.0" x2="402.0" y2="248.0" stroke="#000000" stroke-width="2.0" />
<line x1="430.0" y1="220.0" x2="430.0" y2="318.0" stroke="#000000" stroke-width="2.0" />
<line x1="94.0" y1="248.0" x2="402.0" y2="248.0" stroke="#000000" stroke-width="2.0" />
<line x1="94.0" y1="276.0" x2="402.0" y2="276.0" stroke="#000000" stroke-width="2.0" />
<line x1="94.0" y1="276.0" x2="94.0" y2="311.0" stroke="#000000" stroke-width="2.0" />
<line x1="402.0" y1="276.0" x2="402.0" y2="318.0" stroke="#000000" stroke-width="2.0" />
<g>
    <line x1="101.0" y1="318.0" x2="90.5" y2="321.5" stroke="#000000" stroke-width="2.0" />
    <line x1="101.0" y1="318.0" x2="90.5" y2="314.5" stroke="#000000" stroke-width="2.0" />
    <line x1="66.0" y1="318.0" x2="101.0" y2="318.0" stroke="#000000" stroke-width="2.0" />
</g>
<line x1="402.0" y1="318.0" x2="430.0" y2="318.0" stroke="#000000" stroke-width="2.0" />
<line x1="94.0" y1="325.0" x2="94.0" y2="374.0" stroke="#000000" stroke-width="2.0" />
<line x1="402.0" y1="318.0" x2="402.0" y2="374.0" stroke="#000000" stroke-width="2.0" />
<line x1="94.0" y1="374.0" x2="402.0" y2="374.0" stroke="#000000" stroke-width="2.0" />
<text x="31.0" y="28.900000000000002" font-family="monospace" font-size="14.0" fill="#000000" >
  ScoreComponent
</text>
<text x="115.0" y="196.9" font-family="monospace" font-size="14.0" fill="#000000" >
  IntraScore
</text>
<text x="129.0" y="238.90000000000003" font-family="monospace" font-size="14.0" fill="#000000" >
  "
</text>
<text x="171.0" y="238.90000000000003" font-family="monospace" font-size="14.0" fill="#000000" >
  ScoreComponent"
</text>
<text x="115.0" y="294.90000000000003" font-family="monospace" font-size="14.0" fill="#000000" >
  InterScore
</text>
<text x="129.0" y="336.90000000000003" font-family="monospace" font-size="14.0" fill="#000000" >
  "
</text>
<text x="171.0" y="336.90000000000003" font-family="monospace" font-size="14.0" fill="#000000" >
  ScoreComponent"
</text>
<text x="129.0" y="364.90000000000003" font-family="monospace" font-size="14.0" fill="#000000" >
  "
</text>
<text x="171.0" y="364.90000000000003" font-family="monospace" font-size="14.0" fill="#000000" >
  ScoreComponent"
</text>
</svg>
