<?xml version="1.0" standalone="no"?>
<!DOCTYPE svg PUBLIC "-//W3C//DTD SVG 1.1//EN" "http://www.w3.org/Graphics/SVG/1.1/DTD/svg11.dtd">

<svg width="622.0" height="272.0" viewBox="0 0 622.0 272.0" version="1.1" xmlns="http://www.w3.org/2000/svg" xmlns:xlink="http://www.w3.org/1999/xlink">
<!-- automatically generated by aafigure --><text x="17.0" y="28.900000000000002" font-family="monospace" font-size="14.0" fill="#000000" >
  Input Model
</text>
<text x="87.0" y="70.89999999999999" font-family="monospace" font-size="14.0" fill="#000000" >
  Initialized via factory function.
</text>
<text x="17.0" y="112.89999999999999" font-family="monospace" font-size="14.0" fill="#000000" >
  ScoreComponent
</text>
<text x="87.0" y="126.89999999999999" font-family="monospace" font-size="14.0" fill="#000000" >
  coords
</text>
<text x="87.0" y="140.9" font-family="monospace" font-size="14.0" fill="#000000" >
  database
</text>
<text x="87.0" y="154.9" font-family="monospace" font-size="14.0" fill="#000000" >
  ...
</text>
<text x="143.0" y="196.9" font-family="monospace" font-size="14.0" fill="#000000" >
  Initialized per score operation.
</text>
<text x="17.0" y="238.90000000000003" font-family="monospace" font-size="14.0" fill="#000000" >
  IntraScore
</text>
<text x="87.0" y="252.90000000000003" font-family="monospace" font-size="14.0" fill="#000000" >
  target: ScoreComponent
</text>
<line x1="10.0" y1="10.0" x2="206.0" y2="10.0" stroke="#000000" stroke-width="2.0" />
<line x1="10.0" y1="10.0" x2="10.0" y2="38.0" stroke="#000000" stroke-width="2.0" />
<line x1="206.0" y1="10.0" x2="206.0" y2="38.0" stroke="#000000" stroke-width="2.0" />
<line x1="10.0" y1="38.0" x2="206.0" y2="38.0" stroke="#000000" stroke-width="2.0" />
<g>
    <line x1="66.0" y1="87.0" x2="62.5" y2="76.5" stroke="#000000" stroke-width="2.0" />
    <line x1="66.0" y1="87.0" x2="69.5" y2="76.5" stroke="#000000" stroke-width="2.0" />
    <line x1="66.0" y1="45.0" x2="66.0" y2="87.0" stroke="#000000" stroke-width="2.0" />
</g>
<line x1="10.0" y1="94.0" x2="276.0" y2="94.0" stroke="#000000" stroke-width="2.0" />
<line x1="10.0" y1="94.0" x2="10.0" y2="164.0" stroke="#000000" stroke-width="2.0" />
<line x1="276.0" y1="94.0" x2="276.0" y2="164.0" stroke="#000000" stroke-width="2.0" />
<line x1="59.0" y1="122.0" x2="73.0" y2="122.0" stroke="#000000" stroke-width="2.0" />
<line x1="59.0" y1="136.0" x2="73.0" y2="136.0" stroke="#000000" stroke-width="2.0" />
<line x1="59.0" y1="150.0" x2="73.0" y2="150.0" stroke="#000000" stroke-width="2.0" />
<line x1="10.0" y1="164.0" x2="276.0" y2="164.0" stroke="#000000" stroke-width="2.0" />
<g>
    <line x1="66.0" y1="213.0" x2="62.5" y2="202.5" stroke="#000000" stroke-width="2.0" />
    <line x1="66.0" y1="213.0" x2="69.5" y2="202.5" stroke="#000000" stroke-width="2.0" />
    <line x1="66.0" y1="171.0" x2="66.0" y2="213.0" stroke="#000000" stroke-width="2.0" />
</g>
<g>
    <line x1="94.0" y1="213.0" x2="90.5" y2="202.5" stroke="#000000" stroke-width="2.0" />
    <line x1="94.0" y1="213.0" x2="97.5" y2="202.5" stroke="#000000" stroke-width="2.0" />
    <line x1="94.0" y1="171.0" x2="94.0" y2="213.0" stroke="#000000" stroke-width="2.0" />
</g>
<g>
    <line x1="122.0" y1="213.0" x2="118.5" y2="202.5" stroke="#000000" stroke-width="2.0" />
    <line x1="122.0" y1="213.0" x2="125.5" y2="202.5" stroke="#000000" stroke-width="2.0" />
    <line x1="122.0" y1="171.0" x2="122.0" y2="213.0" stroke="#000000" stroke-width="2.0" />
</g>
<line x1="10.0" y1="220.0" x2="430.0" y2="220.0" stroke="#000000" stroke-width="2.0" />
<line x1="10.0" y1="220.0" x2="10.0" y2="262.0" stroke="#000000" stroke-width="2.0" />
<line x1="430.0" y1="220.0" x2="430.0" y2="262.0" stroke="#000000" stroke-width="2.0" />
<line x1="59.0" y1="248.0" x2="73.0" y2="248.0" stroke="#000000" stroke-width="2.0" />
<line x1="10.0" y1="262.0" x2="430.0" y2="262.0" stroke="#000000" stroke-width="2.0" />
</svg>
