<?xml version="1.0" standalone="no"?>
<!DOCTYPE svg PUBLIC "-//W3C//DTD SVG 1.1//EN" "http://www.w3.org/Graphics/SVG/1.1/DTD/svg11.dtd">

<svg width="454.0" height="272.0" viewBox="0 0 454.0 272.0" version="1.1" xmlns="http://www.w3.org/2000/svg" xmlns:xlink="http://www.w3.org/1999/xlink">
<!-- automatically generated by aafigure --><line x1="10.0" y1="10.0" x2="444.0" y2="10.0" stroke="#000000" stroke-width="2.0" />
<line x1="10.0" y1="10.0" x2="10.0" y2="262.0" stroke="#000000" stroke-width="2.0" />
<line x1="444.0" y1="10.0" x2="444.0" y2="262.0" stroke="#000000" stroke-width="2.0" />
<line x1="164.0" y1="38.0" x2="276.0" y2="38.0" stroke="#000000" stroke-width="2.0" />
<line x1="164.0" y1="38.0" x2="164.0" y2="66.0" stroke="#000000" stroke-width="2.0" />
<line x1="276.0" y1="38.0" x2="276.0" y2="66.0" stroke="#000000" stroke-width="2.0" />
<line x1="164.0" y1="66.0" x2="178.0" y2="66.0" stroke="#000000" stroke-width="2.0" />
<line x1="178.0" y1="66.0" x2="262.0" y2="66.0" stroke="#000000" stroke-width="2.0" />
<line x1="262.0" y1="66.0" x2="276.0" y2="66.0" stroke="#000000" stroke-width="2.0" />
<line x1="178.0" y1="66.0" x2="178.0" y2="94.0" stroke="#000000" stroke-width="2.0" />
<line x1="262.0" y1="66.0" x2="262.0" y2="94.0" stroke="#000000" stroke-width="2.0" />
<line x1="136.0" y1="94.0" x2="178.0" y2="94.0" stroke="#000000" stroke-width="2.0" />
<line x1="248.0" y1="94.0" x2="262.0" y2="94.0" stroke="#000000" stroke-width="2.0" />
<line x1="262.0" y1="94.0" x2="360.0" y2="94.0" stroke="#000000" stroke-width="2.0" />
<g>
    <line x1="136.0" y1="129.0" x2="132.5" y2="118.5" stroke="#000000" stroke-width="2.0" />
    <line x1="136.0" y1="129.0" x2="139.5" y2="118.5" stroke="#000000" stroke-width="2.0" />
    <line x1="136.0" y1="94.0" x2="136.0" y2="129.0" stroke="#000000" stroke-width="2.0" />
</g>
<line x1="248.0" y1="94.0" x2="248.0" y2="122.0" stroke="#000000" stroke-width="2.0" />
<line x1="360.0" y1="94.0" x2="360.0" y2="122.0" stroke="#000000" stroke-width="2.0" />
<line x1="248.0" y1="122.0" x2="262.0" y2="122.0" stroke="#000000" stroke-width="2.0" />
<line x1="262.0" y1="122.0" x2="346.0" y2="122.0" stroke="#000000" stroke-width="2.0" />
<line x1="346.0" y1="122.0" x2="360.0" y2="122.0" stroke="#000000" stroke-width="2.0" />
<line x1="80.0" y1="136.0" x2="150.0" y2="136.0" stroke="#000000" stroke-width="2.0" />
<g>
    <line x1="262.0" y1="157.0" x2="258.5" y2="146.5" stroke="#000000" stroke-width="2.0" />
    <line x1="262.0" y1="157.0" x2="265.5" y2="146.5" stroke="#000000" stroke-width="2.0" />
    <line x1="262.0" y1="122.0" x2="262.0" y2="157.0" stroke="#000000" stroke-width="2.0" />
</g>
<g>
    <line x1="346.0" y1="157.0" x2="342.5" y2="146.5" stroke="#000000" stroke-width="2.0" />
    <line x1="346.0" y1="157.0" x2="349.5" y2="146.5" stroke="#000000" stroke-width="2.0" />
    <line x1="346.0" y1="122.0" x2="346.0" y2="157.0" stroke="#000000" stroke-width="2.0" />
</g>
<line x1="80.0" y1="136.0" x2="80.0" y2="164.0" stroke="#000000" stroke-width="2.0" />
<line x1="150.0" y1="136.0" x2="150.0" y2="164.0" stroke="#000000" stroke-width="2.0" />
<line x1="80.0" y1="164.0" x2="136.0" y2="164.0" stroke="#000000" stroke-width="2.0" />
<line x1="136.0" y1="164.0" x2="150.0" y2="164.0" stroke="#000000" stroke-width="2.0" />
<line x1="206.0" y1="164.0" x2="276.0" y2="164.0" stroke="#000000" stroke-width="2.0" />
<line x1="304.0" y1="164.0" x2="374.0" y2="164.0" stroke="#000000" stroke-width="2.0" />
<g>
    <line x1="136.0" y1="199.0" x2="132.5" y2="188.5" stroke="#000000" stroke-width="2.0" />
    <line x1="136.0" y1="199.0" x2="139.5" y2="188.5" stroke="#000000" stroke-width="2.0" />
    <line x1="136.0" y1="164.0" x2="136.0" y2="199.0" stroke="#000000" stroke-width="2.0" />
</g>
<line x1="206.0" y1="164.0" x2="206.0" y2="192.0" stroke="#000000" stroke-width="2.0" />
<line x1="276.0" y1="164.0" x2="276.0" y2="192.0" stroke="#000000" stroke-width="2.0" />
<line x1="304.0" y1="164.0" x2="304.0" y2="192.0" stroke="#000000" stroke-width="2.0" />
<line x1="374.0" y1="164.0" x2="374.0" y2="192.0" stroke="#000000" stroke-width="2.0" />
<line x1="206.0" y1="192.0" x2="248.0" y2="192.0" stroke="#000000" stroke-width="2.0" />
<line x1="248.0" y1="192.0" x2="276.0" y2="192.0" stroke="#000000" stroke-width="2.0" />
<line x1="304.0" y1="192.0" x2="346.0" y2="192.0" stroke="#000000" stroke-width="2.0" />
<line x1="346.0" y1="192.0" x2="374.0" y2="192.0" stroke="#000000" stroke-width="2.0" />
<line x1="108.0" y1="206.0" x2="192.0" y2="206.0" stroke="#000000" stroke-width="2.0" />
<line x1="248.0" y1="192.0" x2="248.0" y2="220.0" stroke="#000000" stroke-width="2.0" />
<line x1="346.0" y1="192.0" x2="346.0" y2="220.0" stroke="#000000" stroke-width="2.0" />
<line x1="108.0" y1="206.0" x2="108.0" y2="234.0" stroke="#000000" stroke-width="2.0" />
<line x1="192.0" y1="206.0" x2="192.0" y2="234.0" stroke="#000000" stroke-width="2.0" />
<g>
    <line x1="199.0" y1="220.0" x2="209.5" y2="216.5" stroke="#000000" stroke-width="2.0" />
    <line x1="199.0" y1="220.0" x2="209.5" y2="223.5" stroke="#000000" stroke-width="2.0" />
    <line x1="199.0" y1="220.0" x2="248.0" y2="220.0" stroke="#000000" stroke-width="2.0" />
</g>
<line x1="248.0" y1="220.0" x2="346.0" y2="220.0" stroke="#000000" stroke-width="2.0" />
<line x1="108.0" y1="234.0" x2="192.0" y2="234.0" stroke="#000000" stroke-width="2.0" />
<line x1="10.0" y1="262.0" x2="444.0" y2="262.0" stroke="#000000" stroke-width="2.0" />
<text x="185.0" y="56.9" font-family="monospace" font-size="14.0" fill="#000000" >
  Atoms
</text>
<text x="255.0" y="112.89999999999999" font-family="monospace" font-size="14.0" fill="#000000" >
  Derived
</text>
<text x="87.0" y="154.9" font-family="monospace" font-size="14.0" fill="#000000" >
  Term
</text>
<text x="213.0" y="182.9" font-family="monospace" font-size="14.0" fill="#000000" >
  Term
</text>
<text x="311.0" y="182.9" font-family="monospace" font-size="14.0" fill="#000000" >
  Term
</text>
<text x="115.0" y="224.9" font-family="monospace" font-size="14.0" fill="#000000" >
  Total
</text>
</svg>
