<?xml version="1.0" standalone="no"?>
<!DOCTYPE svg PUBLIC "-//W3C//DTD SVG 1.1//EN" "http://www.w3.org/Graphics/SVG/1.1/DTD/svg11.dtd">

<svg width="608.0" height="314.0" viewBox="0 0 608.0 314.0" version="1.1" xmlns="http://www.w3.org/2000/svg" xmlns:xlink="http://www.w3.org/1999/xlink">
<!-- automatically generated by aafigure --><text x="17.0" y="28.900000000000002" font-family="monospace" font-size="14.0" fill="#000000" >
  ScoreComponent
</text>
<text x="255.0" y="70.89999999999999" font-family="monospace" font-size="14.0" fill="#000000" >
  coords
</text>
<text x="59.0" y="126.89999999999999" font-family="monospace" font-size="14.0" fill="#000000" >
  Term A
</text>
<text x="241.0" y="126.89999999999999" font-family="monospace" font-size="14.0" fill="#000000" >
  Term B
</text>
<text x="423.0" y="126.89999999999999" font-family="monospace" font-size="14.0" fill="#000000" >
  Term C
</text>
<text x="59.0" y="210.9" font-family="monospace" font-size="14.0" fill="#000000" >
  total_A
</text>
<text x="241.0" y="210.9" font-family="monospace" font-size="14.0" fill="#000000" >
  total_B
</text>
<text x="423.0" y="210.9" font-family="monospace" font-size="14.0" fill="#000000" >
  total_C
</text>
<text x="255.0" y="266.90000000000003" font-family="monospace" font-size="14.0" fill="#000000" >
  total
</text>
<text x="17.0" y="294.90000000000003" font-family="monospace" font-size="14.0" fill="#000000" >
  IntraScore
</text>
<line x1="10.0" y1="10.0" x2="598.0" y2="10.0" stroke="#000000" stroke-width="2.0" />
<line x1="10.0" y1="10.0" x2="10.0" y2="150.0" stroke="#000000" stroke-width="2.0" />
<line x1="598.0" y1="10.0" x2="598.0" y2="150.0" stroke="#000000" stroke-width="2.0" />
<line x1="234.0" y1="52.0" x2="234.0" y2="66.0" stroke="#000000" stroke-width="2.0" />
<line x1="234.0" y1="52.0" x2="374.0" y2="52.0" stroke="#000000" stroke-width="2.0" />
<line x1="374.0" y1="52.0" x2="374.0" y2="66.0" stroke="#000000" stroke-width="2.0" />
<line x1="185.0" y1="66.0" x2="234.0" y2="66.0" stroke="#000000" stroke-width="2.0" />
<line x1="234.0" y1="66.0" x2="234.0" y2="80.0" stroke="#000000" stroke-width="2.0" />
<line x1="374.0" y1="66.0" x2="374.0" y2="80.0" stroke="#000000" stroke-width="2.0" />
<line x1="374.0" y1="66.0" x2="423.0" y2="66.0" stroke="#000000" stroke-width="2.0" />
<line x1="185.0" y1="66.0" x2="164.0" y2="87.0" stroke="#000000" stroke-width="2.0" />
<line x1="234.0" y1="80.0" x2="304.0" y2="80.0" stroke="#000000" stroke-width="2.0" />
<line x1="304.0" y1="80.0" x2="374.0" y2="80.0" stroke="#000000" stroke-width="2.0" />
<line x1="423.0" y1="66.0" x2="444.0" y2="87.0" stroke="#000000" stroke-width="2.0" />
<g>
    <line x1="164.0" y1="115.0" x2="160.5" y2="104.5" stroke="#000000" stroke-width="2.0" />
    <line x1="164.0" y1="115.0" x2="167.5" y2="104.5" stroke="#000000" stroke-width="2.0" />
    <line x1="164.0" y1="87.0" x2="164.0" y2="115.0" stroke="#000000" stroke-width="2.0" />
</g>
<g>
    <line x1="304.0" y1="115.0" x2="300.5" y2="104.5" stroke="#000000" stroke-width="2.0" />
    <line x1="304.0" y1="115.0" x2="307.5" y2="104.5" stroke="#000000" stroke-width="2.0" />
    <line x1="304.0" y1="80.0" x2="304.0" y2="115.0" stroke="#000000" stroke-width="2.0" />
</g>
<g>
    <line x1="444.0" y1="115.0" x2="440.5" y2="104.5" stroke="#000000" stroke-width="2.0" />
    <line x1="444.0" y1="115.0" x2="447.5" y2="104.5" stroke="#000000" stroke-width="2.0" />
    <line x1="444.0" y1="87.0" x2="444.0" y2="115.0" stroke="#000000" stroke-width="2.0" />
</g>
<line x1="52.0" y1="108.0" x2="157.0" y2="108.0" stroke="#000000" stroke-width="2.0" />
<line x1="171.0" y1="108.0" x2="192.0" y2="108.0" stroke="#000000" stroke-width="2.0" />
<line x1="234.0" y1="108.0" x2="297.0" y2="108.0" stroke="#000000" stroke-width="2.0" />
<line x1="311.0" y1="108.0" x2="374.0" y2="108.0" stroke="#000000" stroke-width="2.0" />
<line x1="416.0" y1="108.0" x2="437.0" y2="108.0" stroke="#000000" stroke-width="2.0" />
<line x1="451.0" y1="108.0" x2="556.0" y2="108.0" stroke="#000000" stroke-width="2.0" />
<line x1="52.0" y1="108.0" x2="52.0" y2="136.0" stroke="#000000" stroke-width="2.0" />
<line x1="192.0" y1="108.0" x2="192.0" y2="136.0" stroke="#000000" stroke-width="2.0" />
<line x1="234.0" y1="108.0" x2="234.0" y2="136.0" stroke="#000000" stroke-width="2.0" />
<line x1="374.0" y1="108.0" x2="374.0" y2="136.0" stroke="#000000" stroke-width="2.0" />
<line x1="416.0" y1="108.0" x2="416.0" y2="136.0" stroke="#000000" stroke-width="2.0" />
<line x1="556.0" y1="108.0" x2="556.0" y2="136.0" stroke="#000000" stroke-width="2.0" />
<line x1="52.0" y1="136.0" x2="178.0" y2="136.0" stroke="#000000" stroke-width="2.0" />
<line x1="178.0" y1="136.0" x2="192.0" y2="136.0" stroke="#000000" stroke-width="2.0" />
<line x1="234.0" y1="136.0" x2="304.0" y2="136.0" stroke="#000000" stroke-width="2.0" />
<line x1="304.0" y1="136.0" x2="374.0" y2="136.0" stroke="#000000" stroke-width="2.0" />
<line x1="416.0" y1="136.0" x2="430.0" y2="136.0" stroke="#000000" stroke-width="2.0" />
<line x1="430.0" y1="136.0" x2="556.0" y2="136.0" stroke="#000000" stroke-width="2.0" />
<line x1="10.0" y1="150.0" x2="171.0" y2="150.0" stroke="#000000" stroke-width="2.0" />
<g>
    <line x1="178.0" y1="199.0" x2="174.5" y2="188.5" stroke="#000000" stroke-width="2.0" />
    <line x1="178.0" y1="199.0" x2="181.5" y2="188.5" stroke="#000000" stroke-width="2.0" />
    <line x1="178.0" y1="136.0" x2="178.0" y2="199.0" stroke="#000000" stroke-width="2.0" />
</g>
<line x1="185.0" y1="150.0" x2="297.0" y2="150.0" stroke="#000000" stroke-width="2.0" />
<g>
    <line x1="304.0" y1="199.0" x2="300.5" y2="188.5" stroke="#000000" stroke-width="2.0" />
    <line x1="304.0" y1="199.0" x2="307.5" y2="188.5" stroke="#000000" stroke-width="2.0" />
    <line x1="304.0" y1="136.0" x2="304.0" y2="199.0" stroke="#000000" stroke-width="2.0" />
</g>
<line x1="311.0" y1="150.0" x2="423.0" y2="150.0" stroke="#000000" stroke-width="2.0" />
<g>
    <line x1="430.0" y1="199.0" x2="426.5" y2="188.5" stroke="#000000" stroke-width="2.0" />
    <line x1="430.0" y1="199.0" x2="433.5" y2="188.5" stroke="#000000" stroke-width="2.0" />
    <line x1="430.0" y1="136.0" x2="430.0" y2="199.0" stroke="#000000" stroke-width="2.0" />
</g>
<line x1="437.0" y1="150.0" x2="598.0" y2="150.0" stroke="#000000" stroke-width="2.0" />
<line x1="10.0" y1="178.0" x2="171.0" y2="178.0" stroke="#000000" stroke-width="2.0" />
<line x1="185.0" y1="178.0" x2="297.0" y2="178.0" stroke="#000000" stroke-width="2.0" />
<line x1="311.0" y1="178.0" x2="423.0" y2="178.0" stroke="#000000" stroke-width="2.0" />
<line x1="437.0" y1="178.0" x2="598.0" y2="178.0" stroke="#000000" stroke-width="2.0" />
<line x1="10.0" y1="178.0" x2="10.0" y2="304.0" stroke="#000000" stroke-width="2.0" />
<line x1="52.0" y1="192.0" x2="171.0" y2="192.0" stroke="#000000" stroke-width="2.0" />
<line x1="234.0" y1="192.0" x2="297.0" y2="192.0" stroke="#000000" stroke-width="2.0" />
<line x1="311.0" y1="192.0" x2="374.0" y2="192.0" stroke="#000000" stroke-width="2.0" />
<line x1="437.0" y1="192.0" x2="556.0" y2="192.0" stroke="#000000" stroke-width="2.0" />
<line x1="598.0" y1="178.0" x2="598.0" y2="304.0" stroke="#000000" stroke-width="2.0" />
<line x1="52.0" y1="192.0" x2="52.0" y2="220.0" stroke="#000000" stroke-width="2.0" />
<line x1="192.0" y1="192.0" x2="192.0" y2="220.0" stroke="#000000" stroke-width="2.0" />
<line x1="234.0" y1="192.0" x2="234.0" y2="220.0" stroke="#000000" stroke-width="2.0" />
<line x1="374.0" y1="192.0" x2="374.0" y2="220.0" stroke="#000000" stroke-width="2.0" />
<line x1="416.0" y1="192.0" x2="416.0" y2="220.0" stroke="#000000" stroke-width="2.0" />
<line x1="556.0" y1="192.0" x2="556.0" y2="220.0" stroke="#000000" stroke-width="2.0" />
<line x1="52.0" y1="220.0" x2="164.0" y2="220.0" stroke="#000000" stroke-width="2.0" />
<line x1="164.0" y1="220.0" x2="192.0" y2="220.0" stroke="#000000" stroke-width="2.0" />
<line x1="234.0" y1="220.0" x2="304.0" y2="220.0" stroke="#000000" stroke-width="2.0" />
<line x1="304.0" y1="220.0" x2="374.0" y2="220.0" stroke="#000000" stroke-width="2.0" />
<line x1="416.0" y1="220.0" x2="444.0" y2="220.0" stroke="#000000" stroke-width="2.0" />
<line x1="444.0" y1="220.0" x2="556.0" y2="220.0" stroke="#000000" stroke-width="2.0" />
<line x1="164.0" y1="220.0" x2="164.0" y2="241.0" stroke="#000000" stroke-width="2.0" />
<g>
    <line x1="304.0" y1="255.0" x2="300.5" y2="244.5" stroke="#000000" stroke-width="2.0" />
    <line x1="304.0" y1="255.0" x2="307.5" y2="244.5" stroke="#000000" stroke-width="2.0" />
    <line x1="304.0" y1="220.0" x2="304.0" y2="255.0" stroke="#000000" stroke-width="2.0" />
</g>
<line x1="444.0" y1="220.0" x2="444.0" y2="241.0" stroke="#000000" stroke-width="2.0" />
<line x1="164.0" y1="241.0" x2="185.0" y2="262.0" stroke="#000000" stroke-width="2.0" />
<line x1="234.0" y1="248.0" x2="297.0" y2="248.0" stroke="#000000" stroke-width="2.0" />
<line x1="311.0" y1="248.0" x2="374.0" y2="248.0" stroke="#000000" stroke-width="2.0" />
<line x1="444.0" y1="241.0" x2="423.0" y2="262.0" stroke="#000000" stroke-width="2.0" />
<g>
    <line x1="227.0" y1="262.0" x2="216.5" y2="265.5" stroke="#000000" stroke-width="2.0" />
    <line x1="227.0" y1="262.0" x2="216.5" y2="258.5" stroke="#000000" stroke-width="2.0" />
    <line x1="185.0" y1="262.0" x2="227.0" y2="262.0" stroke="#000000" stroke-width="2.0" />
</g>
<line x1="234.0" y1="248.0" x2="234.0" y2="276.0" stroke="#000000" stroke-width="2.0" />
<line x1="374.0" y1="248.0" x2="374.0" y2="276.0" stroke="#000000" stroke-width="2.0" />
<g>
    <line x1="381.0" y1="262.0" x2="391.5" y2="258.5" stroke="#000000" stroke-width="2.0" />
    <line x1="381.0" y1="262.0" x2="391.5" y2="265.5" stroke="#000000" stroke-width="2.0" />
    <line x1="381.0" y1="262.0" x2="423.0" y2="262.0" stroke="#000000" stroke-width="2.0" />
</g>
<line x1="234.0" y1="276.0" x2="374.0" y2="276.0" stroke="#000000" stroke-width="2.0" />
<line x1="10.0" y1="304.0" x2="598.0" y2="304.0" stroke="#000000" stroke-width="2.0" />
</svg>
