<?xml version="1.0" standalone="no"?>
<!DOCTYPE svg PUBLIC "-//W3C//DTD SVG 1.1//EN" "http://www.w3.org/Graphics/SVG/1.1/DTD/svg11.dtd">

<svg width="580.0" height="230.0" viewBox="0 0 580.0 230.0" version="1.1" xmlns="http://www.w3.org/2000/svg" xmlns:xlink="http://www.w3.org/1999/xlink">
<!-- automatically generated by aafigure --><text x="31.0" y="42.9" font-family="monospace" font-size="14.0" fill="#000000" >
  [n] atom_types
</text>
<text x="31.0" y="56.9" font-family="monospace" font-size="14.0" fill="#000000" >
  [n] coordinates
</text>
<text x="31.0" y="70.89999999999999" font-family="monospace" font-size="14.0" fill="#000000" >
  [b] (a,b) bond indices
</text>
<text x="31.0" y="182.9" font-family="monospace" font-size="14.0" fill="#000000" >
  [l] layers
</text>
<line x1="10.0" y1="10.0" x2="570.0" y2="10.0" stroke="#000000" stroke-width="2.0" />
<line x1="10.0" y1="10.0" x2="10.0" y2="94.0" stroke="#000000" stroke-width="2.0" />
<line x1="493.0" y1="24.0" x2="521.0" y2="24.0" stroke="#000000" stroke-width="2.0" />
<line x1="570.0" y1="10.0" x2="570.0" y2="94.0" stroke="#000000" stroke-width="2.0" />
<line x1="493.0" y1="24.0" x2="472.0" y2="52.0" stroke="#000000" stroke-width="2.0" />
<line x1="521.0" y1="24.0" x2="542.0" y2="52.0" stroke="#000000" stroke-width="2.0" />
<line x1="444.0" y1="52.0" x2="472.0" y2="52.0" stroke="#000000" stroke-width="2.0" />
<line x1="444.0" y1="52.0" x2="423.0" y2="73.0" stroke="#000000" stroke-width="2.0" />
<line x1="472.0" y1="52.0" x2="493.0" y2="80.0" stroke="#000000" stroke-width="2.0" />
<line x1="542.0" y1="52.0" x2="521.0" y2="80.0" stroke="#000000" stroke-width="2.0" />
<line x1="493.0" y1="80.0" x2="521.0" y2="80.0" stroke="#000000" stroke-width="2.0" />
<line x1="10.0" y1="94.0" x2="500.0" y2="94.0" stroke="#000000" stroke-width="2.0" />
<line x1="500.0" y1="94.0" x2="570.0" y2="94.0" stroke="#000000" stroke-width="2.0" />
<g>
    <circle cx="500.0" cy="150.0" r="3.5" stroke="#000000" stroke-width="2.0" fill="#000000" />    <line x1="500.0" y1="94.0" x2="500.0" y2="150.0" stroke="#000000" stroke-width="2.0" />
</g>
<line x1="10.0" y1="136.0" x2="493.0" y2="136.0" stroke="#000000" stroke-width="2.0" />
<line x1="507.0" y1="136.0" x2="570.0" y2="136.0" stroke="#000000" stroke-width="2.0" />
<line x1="10.0" y1="136.0" x2="10.0" y2="220.0" stroke="#000000" stroke-width="2.0" />
<line x1="444.0" y1="150.0" x2="444.0" y2="164.0" stroke="#000000" stroke-width="2.0" />
<g>
    <circle cx="500.0" cy="150.0" r="3.5" stroke="#000000" stroke-width="2.0" fill="#000000" />    <line x1="444.0" y1="150.0" x2="500.0" y2="150.0" stroke="#000000" stroke-width="2.0" />
</g>
<g>
    <circle cx="500.0" cy="150.0" r="3.5" stroke="#000000" stroke-width="2.0" fill="#000000" />    <line x1="500.0" y1="150.0" x2="542.0" y2="150.0" stroke="#000000" stroke-width="2.0" />
</g>
<line x1="542.0" y1="150.0" x2="542.0" y2="164.0" stroke="#000000" stroke-width="2.0" />
<line x1="570.0" y1="136.0" x2="570.0" y2="220.0" stroke="#000000" stroke-width="2.0" />
<line x1="444.0" y1="164.0" x2="444.0" y2="178.0" stroke="#000000" stroke-width="2.0" />
<line x1="444.0" y1="164.0" x2="542.0" y2="164.0" stroke="#000000" stroke-width="2.0" />
<line x1="542.0" y1="164.0" x2="542.0" y2="178.0" stroke="#000000" stroke-width="2.0" />
<line x1="444.0" y1="178.0" x2="444.0" y2="192.0" stroke="#000000" stroke-width="2.0" />
<line x1="444.0" y1="178.0" x2="542.0" y2="178.0" stroke="#000000" stroke-width="2.0" />
<line x1="542.0" y1="178.0" x2="542.0" y2="192.0" stroke="#000000" stroke-width="2.0" />
<line x1="444.0" y1="192.0" x2="444.0" y2="206.0" stroke="#000000" stroke-width="2.0" />
<line x1="444.0" y1="192.0" x2="542.0" y2="192.0" stroke="#000000" stroke-width="2.0" />
<line x1="542.0" y1="192.0" x2="542.0" y2="206.0" stroke="#000000" stroke-width="2.0" />
<line x1="444.0" y1="206.0" x2="542.0" y2="206.0" stroke="#000000" stroke-width="2.0" />
<line x1="10.0" y1="220.0" x2="570.0" y2="220.0" stroke="#000000" stroke-width="2.0" />
</svg>
