<svg xmlns="http://www.w3.org/2000/svg" viewBox="0 0 560 320" role="img" aria-labelledby="title description">
<title id="title">Scoring — 1UBQ and a coordinate-derived residue map</title>
<desc id="description">Static molecular render generated from 1UBQ.cif used by this tutorial.</desc>
<metadata>Generated from tutorial fixtures: 1UBQ.cif</metadata>
<rect width="560" height="320" rx="24" fill="#111a2d"/>
<rect x="10" y="10" width="540" height="300" rx="18" fill="none" stroke="#263a5e" stroke-width="2"/>
<polyline points="209.5,214.7 213.7,187.0 194.5,168.7 195.1,140.9 192.4,133.2 183.7,102.2 190.5,92.2 177.2,65.0 202.0,54.0 199.4,55.1 221.9,80.8 214.6,103.0 231.7,132.1 232.6,153.6 234.3,182.6 238.1,209.1 218.5,224.7 202.7,245.0 172.2,240.4 179.0,266.0 193.9,252.8 180.5,245.0 174.4,216.3 195.2,227.3 216.7,236.6 209.4,209.2 212.4,195.4 240.5,214.9 249.2,207.8 239.8,177.6 256.0,183.0 280.9,199.0 279.4,176.0 269.1,149.7 273.6,159.7 244.7,150.8 238.7,170.3 216.0,183.2 200.0,173.8 196.5,144.3 186.2,148.2 156.2,140.2 152.5,147.1 126.8,132.3 116.5,138.9 88.4,127.1 79.1,114.8 86.4,141.7 108.9,149.1 127.3,176.7 131.5,199.8 159.5,219.5 152.7,246.8 138.0,238.8 152.9,241.3 151.2,218.8 134.9,233.5 113.2,229.9 107.0,199.4 109.3,201.2 133.5,188.3 144.0,191.1 170.4,186.8 174.5,158.5 153.5,150.1 158.3,130.3 154.9,135.7 152.9,113.0 171.1,118.8 160.8,102.5 179.7,107.9 168.6,111.3 189.8,108.1 189.7,119.5 188.8,95.5 178.1,64.8" fill="none" stroke="#54c7ec" stroke-width="8" stroke-linecap="round" stroke-linejoin="round" opacity="1.0"/>
<rect x="360" y="84" width="11" height="11" fill="rgb(235,90,115)"/>
<rect x="372" y="84" width="11" height="11" fill="rgb(128,90,201)"/>
<rect x="384" y="84" width="11" height="11" fill="rgb(106,90,218)"/>
<rect x="396" y="84" width="11" height="11" fill="rgb(199,90,144)"/>
<rect x="408" y="84" width="11" height="11" fill="rgb(163,90,172)"/>
<rect x="420" y="84" width="11" height="11" fill="rgb(154,90,180)"/>
<rect x="432" y="84" width="11" height="11" fill="rgb(113,90,212)"/>
<rect x="444" y="84" width="11" height="11" fill="rgb(92,90,229)"/>
<rect x="456" y="84" width="11" height="11" fill="rgb(97,90,226)"/>
<rect x="468" y="84" width="11" height="11" fill="rgb(115,90,211)"/>
<rect x="480" y="84" width="11" height="11" fill="rgb(105,90,219)"/>
<rect x="492" y="84" width="11" height="11" fill="rgb(162,90,173)"/>
<rect x="504" y="84" width="11" height="11" fill="rgb(168,90,169)"/>
<rect x="360" y="96" width="11" height="11" fill="rgb(128,90,201)"/>
<rect x="372" y="96" width="11" height="11" fill="rgb(235,90,115)"/>
<rect x="384" y="96" width="11" height="11" fill="rgb(195,90,147)"/>
<rect x="396" y="96" width="11" height="11" fill="rgb(141,90,190)"/>
<rect x="408" y="96" width="11" height="11" fill="rgb(112,90,213)"/>
<rect x="420" y="96" width="11" height="11" fill="rgb(146,90,186)"/>
<rect x="432" y="96" width="11" height="11" fill="rgb(142,90,190)"/>
<rect x="444" y="96" width="11" height="11" fill="rgb(147,90,185)"/>
<rect x="456" y="96" width="11" height="11" fill="rgb(157,90,178)"/>
<rect x="468" y="96" width="11" height="11" fill="rgb(148,90,184)"/>
<rect x="480" y="96" width="11" height="11" fill="rgb(120,90,207)"/>
<rect x="492" y="96" width="11" height="11" fill="rgb(128,90,200)"/>
<rect x="504" y="96" width="11" height="11" fill="rgb(139,90,192)"/>
<rect x="360" y="108" width="11" height="11" fill="rgb(106,90,218)"/>
<rect x="372" y="108" width="11" height="11" fill="rgb(195,90,147)"/>
<rect x="384" y="108" width="11" height="11" fill="rgb(235,90,115)"/>
<rect x="396" y="108" width="11" height="11" fill="rgb(126,90,202)"/>
<rect x="408" y="108" width="11" height="11" fill="rgb(85,90,235)"/>
<rect x="420" y="108" width="11" height="11" fill="rgb(124,90,204)"/>
<rect x="432" y="108" width="11" height="11" fill="rgb(139,90,192)"/>
<rect x="444" y="108" width="11" height="11" fill="rgb(148,90,184)"/>
<rect x="456" y="108" width="11" height="11" fill="rgb(138,90,192)"/>
<rect x="468" y="108" width="11" height="11" fill="rgb(109,90,216)"/>
<rect x="480" y="108" width="11" height="11" fill="rgb(87,90,234)"/>
<rect x="492" y="108" width="11" height="11" fill="rgb(94,90,228)"/>
<rect x="504" y="108" width="11" height="11" fill="rgb(102,90,221)"/>
<rect x="360" y="120" width="11" height="11" fill="rgb(199,90,144)"/>
<rect x="372" y="120" width="11" height="11" fill="rgb(141,90,190)"/>
<rect x="384" y="120" width="11" height="11" fill="rgb(126,90,202)"/>
<rect x="396" y="120" width="11" height="11" fill="rgb(235,90,115)"/>
<rect x="408" y="120" width="11" height="11" fill="rgb(167,90,169)"/>
<rect x="420" y="120" width="11" height="11" fill="rgb(174,90,163)"/>
<rect x="432" y="120" width="11" height="11" fill="rgb(145,90,187)"/>
<rect x="444" y="120" width="11" height="11" fill="rgb(123,90,205)"/>
<rect x="456" y="120" width="11" height="11" fill="rgb(118,90,208)"/>
<rect x="468" y="120" width="11" height="11" fill="rgb(107,90,217)"/>
<rect x="480" y="120" width="11" height="11" fill="rgb(111,90,214)"/>
<rect x="492" y="120" width="11" height="11" fill="rgb(156,90,178)"/>
<rect x="504" y="120" width="11" height="11" fill="rgb(151,90,182)"/>
<rect x="360" y="132" width="11" height="11" fill="rgb(163,90,172)"/>
<rect x="372" y="132" width="11" height="11" fill="rgb(112,90,213)"/>
<rect x="384" y="132" width="11" height="11" fill="rgb(85,90,235)"/>
<rect x="396" y="132" width="11" height="11" fill="rgb(167,90,169)"/>
<rect x="408" y="132" width="11" height="11" fill="rgb(235,90,115)"/>
<rect x="420" y="132" width="11" height="11" fill="rgb(189,90,152)"/>
<rect x="432" y="132" width="11" height="11" fill="rgb(135,90,195)"/>
<rect x="444" y="132" width="11" height="11" fill="rgb(113,90,213)"/>
<rect x="456" y="132" width="11" height="11" fill="rgb(127,90,201)"/>
<rect x="468" y="132" width="11" height="11" fill="rgb(117,90,209)"/>
<rect x="480" y="132" width="11" height="11" fill="rgb(156,90,178)"/>
<rect x="492" y="132" width="11" height="11" fill="rgb(195,90,147)"/>
<rect x="504" y="132" width="11" height="11" fill="rgb(163,90,172)"/>
<rect x="360" y="144" width="11" height="11" fill="rgb(154,90,180)"/>
<rect x="372" y="144" width="11" height="11" fill="rgb(146,90,186)"/>
<rect x="384" y="144" width="11" height="11" fill="rgb(124,90,204)"/>
<rect x="396" y="144" width="11" height="11" fill="rgb(174,90,163)"/>
<rect x="408" y="144" width="11" height="11" fill="rgb(189,90,152)"/>
<rect x="420" y="144" width="11" height="11" fill="rgb(235,90,115)"/>
<rect x="432" y="144" width="11" height="11" fill="rgb(178,90,160)"/>
<rect x="444" y="144" width="11" height="11" fill="rgb(158,90,177)"/>
<rect x="456" y="144" width="11" height="11" fill="rgb(168,90,169)"/>
<rect x="468" y="144" width="11" height="11" fill="rgb(126,90,203)"/>
<rect x="480" y="144" width="11" height="11" fill="rgb(164,90,172)"/>
<rect x="492" y="144" width="11" height="11" fill="rgb(177,90,161)"/>
<rect x="504" y="144" width="11" height="11" fill="rgb(154,90,180)"/>
<rect x="360" y="156" width="11" height="11" fill="rgb(113,90,212)"/>
<rect x="372" y="156" width="11" height="11" fill="rgb(142,90,190)"/>
<rect x="384" y="156" width="11" height="11" fill="rgb(139,90,192)"/>
<rect x="396" y="156" width="11" height="11" fill="rgb(145,90,187)"/>
<rect x="408" y="156" width="11" height="11" fill="rgb(135,90,195)"/>
<rect x="420" y="156" width="11" height="11" fill="rgb(178,90,160)"/>
<rect x="432" y="156" width="11" height="11" fill="rgb(235,90,115)"/>
<rect x="444" y="156" width="11" height="11" fill="rgb(205,90,139)"/>
<rect x="456" y="156" width="11" height="11" fill="rgb(175,90,163)"/>
<rect x="468" y="156" width="11" height="11" fill="rgb(89,90,232)"/>
<rect x="480" y="156" width="11" height="11" fill="rgb(127,90,201)"/>
<rect x="492" y="156" width="11" height="11" fill="rgb(121,90,206)"/>
<rect x="504" y="156" width="11" height="11" fill="rgb(103,90,221)"/>
<rect x="360" y="168" width="11" height="11" fill="rgb(92,90,229)"/>
<rect x="372" y="168" width="11" height="11" fill="rgb(147,90,185)"/>
<rect x="384" y="168" width="11" height="11" fill="rgb(148,90,184)"/>
<rect x="396" y="168" width="11" height="11" fill="rgb(123,90,205)"/>
<rect x="408" y="168" width="11" height="11" fill="rgb(113,90,213)"/>
<rect x="420" y="168" width="11" height="11" fill="rgb(158,90,177)"/>
<rect x="432" y="168" width="11" height="11" fill="rgb(205,90,139)"/>
<rect x="444" y="168" width="11" height="11" fill="rgb(235,90,115)"/>
<rect x="456" y="168" width="11" height="11" fill="rgb(187,90,153)"/>
<rect x="468" y="168" width="11" height="11" fill="rgb(89,90,231)"/>
<rect x="480" y="168" width="11" height="11" fill="rgb(123,90,204)"/>
<rect x="492" y="168" width="11" height="11" fill="rgb(106,90,218)"/>
<rect x="504" y="168" width="11" height="11" fill="rgb(91,90,230)"/>
<rect x="360" y="180" width="11" height="11" fill="rgb(97,90,226)"/>
<rect x="372" y="180" width="11" height="11" fill="rgb(157,90,178)"/>
<rect x="384" y="180" width="11" height="11" fill="rgb(138,90,192)"/>
<rect x="396" y="180" width="11" height="11" fill="rgb(118,90,208)"/>
<rect x="408" y="180" width="11" height="11" fill="rgb(127,90,201)"/>
<rect x="420" y="180" width="11" height="11" fill="rgb(168,90,169)"/>
<rect x="432" y="180" width="11" height="11" fill="rgb(175,90,163)"/>
<rect x="444" y="180" width="11" height="11" fill="rgb(187,90,153)"/>
<rect x="456" y="180" width="11" height="11" fill="rgb(235,90,115)"/>
<rect x="468" y="180" width="11" height="11" fill="rgb(127,90,201)"/>
<rect x="480" y="180" width="11" height="11" fill="rgb(164,90,172)"/>
<rect x="492" y="180" width="11" height="11" fill="rgb(132,90,197)"/>
<rect x="504" y="180" width="11" height="11" fill="rgb(118,90,209)"/>
<rect x="360" y="192" width="11" height="11" fill="rgb(115,90,211)"/>
<rect x="372" y="192" width="11" height="11" fill="rgb(148,90,184)"/>
<rect x="384" y="192" width="11" height="11" fill="rgb(109,90,216)"/>
<rect x="396" y="192" width="11" height="11" fill="rgb(107,90,217)"/>
<rect x="408" y="192" width="11" height="11" fill="rgb(117,90,209)"/>
<rect x="420" y="192" width="11" height="11" fill="rgb(126,90,203)"/>
<rect x="432" y="192" width="11" height="11" fill="rgb(89,90,232)"/>
<rect x="444" y="192" width="11" height="11" fill="rgb(89,90,231)"/>
<rect x="456" y="192" width="11" height="11" fill="rgb(127,90,201)"/>
<rect x="468" y="192" width="11" height="11" fill="rgb(235,90,115)"/>
<rect x="480" y="192" width="11" height="11" fill="rgb(148,90,185)"/>
<rect x="492" y="192" width="11" height="11" fill="rgb(155,90,179)"/>
<rect x="504" y="192" width="11" height="11" fill="rgb(175,90,163)"/>
<rect x="360" y="204" width="11" height="11" fill="rgb(105,90,219)"/>
<rect x="372" y="204" width="11" height="11" fill="rgb(120,90,207)"/>
<rect x="384" y="204" width="11" height="11" fill="rgb(87,90,234)"/>
<rect x="396" y="204" width="11" height="11" fill="rgb(111,90,214)"/>
<rect x="408" y="204" width="11" height="11" fill="rgb(156,90,178)"/>
<rect x="420" y="204" width="11" height="11" fill="rgb(164,90,172)"/>
<rect x="432" y="204" width="11" height="11" fill="rgb(127,90,201)"/>
<rect x="444" y="204" width="11" height="11" fill="rgb(123,90,204)"/>
<rect x="456" y="204" width="11" height="11" fill="rgb(164,90,172)"/>
<rect x="468" y="204" width="11" height="11" fill="rgb(148,90,185)"/>
<rect x="480" y="204" width="11" height="11" fill="rgb(235,90,115)"/>
<rect x="492" y="204" width="11" height="11" fill="rgb(171,90,166)"/>
<rect x="504" y="204" width="11" height="11" fill="rgb(147,90,185)"/>
<rect x="360" y="216" width="11" height="11" fill="rgb(162,90,173)"/>
<rect x="372" y="216" width="11" height="11" fill="rgb(128,90,200)"/>
<rect x="384" y="216" width="11" height="11" fill="rgb(94,90,228)"/>
<rect x="396" y="216" width="11" height="11" fill="rgb(156,90,178)"/>
<rect x="408" y="216" width="11" height="11" fill="rgb(195,90,147)"/>
<rect x="420" y="216" width="11" height="11" fill="rgb(177,90,161)"/>
<rect x="432" y="216" width="11" height="11" fill="rgb(121,90,206)"/>
<rect x="444" y="216" width="11" height="11" fill="rgb(106,90,218)"/>
<rect x="456" y="216" width="11" height="11" fill="rgb(132,90,197)"/>
<rect x="468" y="216" width="11" height="11" fill="rgb(155,90,179)"/>
<rect x="480" y="216" width="11" height="11" fill="rgb(171,90,166)"/>
<rect x="492" y="216" width="11" height="11" fill="rgb(235,90,115)"/>
<rect x="504" y="216" width="11" height="11" fill="rgb(199,90,144)"/>
<rect x="360" y="228" width="11" height="11" fill="rgb(168,90,169)"/>
<rect x="372" y="228" width="11" height="11" fill="rgb(139,90,192)"/>
<rect x="384" y="228" width="11" height="11" fill="rgb(102,90,221)"/>
<rect x="396" y="228" width="11" height="11" fill="rgb(151,90,182)"/>
<rect x="408" y="228" width="11" height="11" fill="rgb(163,90,172)"/>
<rect x="420" y="228" width="11" height="11" fill="rgb(154,90,180)"/>
<rect x="432" y="228" width="11" height="11" fill="rgb(103,90,221)"/>
<rect x="444" y="228" width="11" height="11" fill="rgb(91,90,230)"/>
<rect x="456" y="228" width="11" height="11" fill="rgb(118,90,209)"/>
<rect x="468" y="228" width="11" height="11" fill="rgb(175,90,163)"/>
<rect x="480" y="228" width="11" height="11" fill="rgb(147,90,185)"/>
<rect x="492" y="228" width="11" height="11" fill="rgb(199,90,144)"/>
<rect x="504" y="228" width="11" height="11" fill="rgb(235,90,115)"/>
</svg>
